<svg width="116" height="115" viewBox="0 0 116 115" fill="none" xmlns="http://www.w3.org/2000/svg">
<path d="M81.3411 98.7102V98.9154H81.7322V98.7102H81.3411Z" fill="#F4F6F8"/>
<path d="M13.2897 76.5516L13.0941 76.7568H13.2897V76.5516Z" fill="#F4F6F8"/>
<path d="M52.5952 9.05003L52.3997 9.2552H50.6397L50.4442 9.46037H49.4664L49.2709 9.66555H48.2931L48.0976 9.87072H47.1198L46.9243 10.0759H46.3376L46.1421 10.2811H45.3599L45.1643 10.4862H44.5777L44.3821 10.6914H43.991L43.7955 10.8966H43.4044L43.2088 11.1017H42.8177L42.6222 11.3069H42.0355L41.84 11.5121H41.4489L41.2533 11.7173H41.0578L40.8622 11.9224H40.4711L40.2756 11.7173H39.8845L39.6889 11.9224L39.8845 12.1276L39.6889 12.3328H39.4934L39.2978 12.538H38.9067L38.7112 12.7431H38.5156L38.3201 12.9483H37.929L37.7334 12.7431H37.5379L37.3423 12.9483H37.1468L36.9512 13.1535L37.1468 13.3586L36.9512 13.5638H36.7557L36.5601 13.769H36.3646L36.169 13.9742H35.9735L35.7779 14.1793H35.5824L35.3868 14.3845H35.1913L34.9957 14.5897H34.8002L34.6046 14.7948H34.4091L34.2135 15H34.018L33.8224 14.7948H33.6269L33.4313 15H33.2358L32.8447 15.4104H32.6491L32.4536 15.6155H32.258L32.0625 15.8207L31.8669 15.6155L32.258 16.0259L31.8669 16.4362H31.6714L31.2803 16.8466H31.0847L30.6936 17.2569H30.4981L30.107 17.6673H29.9114L29.7159 17.4621L29.9114 17.2569L29.5203 17.6673H29.3248L28.9337 18.0776L29.1292 18.2828L28.5426 18.8983H28.347L27.9559 19.3086H27.7604L27.5648 19.1035L27.7604 18.8983L27.1737 19.5138L27.3693 19.719L26.5871 20.5397H26.3915L26.196 20.3345L26.7826 19.719L26.0004 20.5397H25.8049L25.6093 20.7448L21.6983 24.8483L22.4805 24.0276L22.6761 24.2328V24.4379L21.6983 25.4638L21.5028 25.2586L21.1117 25.669L21.3072 25.8741V26.0793L20.525 26.9V27.1052L19.9384 27.7207L19.7428 27.5155L19.1562 28.131L19.5473 27.7207L19.7428 27.9259V28.131L19.1562 28.7465L18.9606 28.5414L18.5695 28.9517V29.1569L18.1784 29.5672V29.7724L17.7873 30.1827L17.9829 29.9776L18.1784 30.1827V30.3879L17.7873 30.7983L17.5918 30.5931L17.2007 31.0034V31.2086L17.0051 31.4138V31.619L17.2007 31.8241V32.0293L16.8096 32.4396L16.614 32.2345L16.4185 32.4396V32.6448L16.614 32.85V33.0552L16.2229 33.4655L16.0274 33.2603L15.8318 33.4655V33.6707L16.0274 33.8758V34.081L15.8318 34.2862V34.4914L15.4407 34.9017L15.2452 34.6965L15.0496 34.9017V35.1069L14.8541 35.312H14.6585L14.8541 35.5172L14.6585 35.7224V35.9276L14.463 36.1327V36.3379L14.2674 36.5431V36.7483L14.0719 36.9534V37.1586L13.8763 37.3638V37.5689L14.0719 37.7741V38.1845L13.8763 38.3896L13.6808 38.1845L13.4852 38.3896V38.5948L13.2897 38.8V39.0051L13.4852 39.2103V39.6207L13.2897 39.8258V40.031L13.0941 40.2362V40.6465L12.8986 40.8517V41.262L12.703 41.4672V41.8776L12.5075 42.0827V42.2879L12.3119 42.4931V42.9034L12.1164 43.1086V43.7241L11.9208 43.9293V44.5448L11.7253 44.75V45.3655L11.5297 45.5706V46.3913L11.3342 46.5965V47.212L11.1386 47.4172V48.0327L10.9431 48.2379V49.2637L10.7475 49.4689V50.4948L10.552 50.6999V52.5465L10.3564 52.7517V56.0344L10.1609 56.2396V58.9068L10.3564 59.112V61.9844L10.552 62.1896V63.831L10.7475 64.0361V65.062L10.9431 65.2672V66.293L11.1386 66.4982V67.1137L11.3342 67.3189V68.1396L11.5297 68.3447V68.9603L11.7253 69.1654V69.7809L11.9208 69.9861V70.3965L12.1164 70.6016V71.2172L11.9208 71.4223V71.8327L12.1164 72.0378V72.4482L12.3119 72.6534L12.5075 72.4482L12.703 72.6534V73.0637L12.8986 73.2689V73.474L13.0941 73.6792V74.0896L13.2897 74.2947V74.4999L13.4852 74.7051V75.1154L13.6808 75.3206V75.7309L13.4852 75.9361V76.1413L13.6808 76.3465V76.5516L13.8763 76.7568L14.0719 76.5516L14.2674 76.7568V76.962L14.463 77.1671V77.3723L14.6585 77.5775V77.7827L14.8541 77.9878V78.193L15.0496 78.3982V78.6033L15.2452 78.8085V79.0137L15.4407 79.2189V79.424L15.6363 79.6292V79.8344L15.8318 80.0395V80.2447L16.0274 80.4499V80.6551L16.2229 80.8602V81.0654L16.614 81.4757V81.6809L16.4185 81.8861V82.0913L16.8096 82.5016V82.7068L17.0051 82.912L17.2007 82.7068L17.5918 83.1171V83.3223L18.1784 83.9378V84.143L17.9829 84.3482V84.5533L18.374 84.9637V85.1688L18.9606 85.7844V85.9895L19.5473 86.6051L19.7428 86.3999L20.3295 87.0154V87.2206L20.1339 87.4257L19.7428 87.0154L20.3295 87.6309V87.8361L21.5028 89.0671L21.6983 88.8619L25.2182 92.555L25.0227 92.7602H24.8271L21.8939 89.6826L23.4583 91.324L24.8271 92.7602H25.0227L26.0004 93.7861L26.196 93.9912L25.6093 93.3757L25.8049 93.1706H26.0004L26.7826 93.9912L26.5871 94.1964L27.3693 95.0171H27.5648L27.7604 95.2223L28.1515 95.6326H28.347L28.9337 96.2481H29.1292L29.7159 96.8637H29.9114L30.3025 97.274H30.4981L30.8892 97.6843H31.0847L31.4758 98.0947H31.6714L31.8669 98.2999H32.0625L32.4536 98.7102H32.6491L32.8447 98.505H33.0402L33.4313 98.9154L33.2358 99.1205L33.4313 99.3257H33.6269L33.8224 99.5309H34.018L34.2135 99.7361H34.4091L34.6046 99.5309H34.8002L34.9957 99.7361H35.1913L35.3868 99.9412H35.5824L35.7779 100.146H35.9735L36.169 100.352H36.3646L36.5601 100.557L36.3646 100.762L36.5601 100.967H36.7557L36.9512 101.172H37.1468L37.3423 101.377H37.5379L37.7334 101.172H38.1245L38.3201 101.377H38.5156L38.7112 101.583H39.1023L39.2978 101.788H39.4934L39.6889 101.993H40.08L40.2756 102.198H40.4711L40.6667 102.403L40.4711 102.608L40.6667 102.814H41.0578L41.2533 103.019H41.6444L41.84 103.224H42.2311L42.4266 103.429H42.8177L43.0133 103.224H43.5999L43.7955 103.429H44.1866L44.3821 103.634L44.1866 103.84L44.3821 104.045H44.9688L45.1643 103.84H45.751L45.9465 104.045H46.7287L46.9243 104.25H47.5109L47.7065 104.455H48.6842L48.8798 104.66H49.662L49.8575 104.865H51.4219L51.6175 105.071H54.1596L54.3552 105.276H59.2439L59.4395 105.071H61.1994L61.395 104.865H62.7638L62.9594 104.66H64.3282L64.5238 104.455H65.306L65.5015 104.25H66.0882L66.2837 104.045H66.8704L67.0659 103.84H67.8482L68.0437 103.634H68.4348L68.6304 103.429H69.217L69.4126 103.224H69.9992L70.1948 103.429H70.5859L70.7814 103.224L70.5859 103.019L70.7814 102.814H71.1725L71.3681 103.019H71.7592L71.9547 102.814H72.3458L72.5414 102.608H72.9325H72.7369L72.5414 102.403V101.993L72.7369 101.788V101.583L72.5414 101.377V100.967L72.3458 100.762L72.1503 100.967L71.9547 100.762V100.352L71.7592 100.146V99.1205L71.9547 98.9154V97.4792L71.7592 97.274V96.2481L71.9547 96.043V95.6326L72.1503 95.4274V95.2223L72.3458 95.0171L72.5414 95.2223L72.7369 95.0171V94.8119L72.5414 94.6068V94.4016L72.9325 93.9912L73.128 94.1964L73.9102 93.3757V93.1706L73.7147 92.9654L74.4969 92.1447H74.6924L75.0835 91.7344H75.2791L75.4746 91.9395H75.6702L75.8657 91.7344L75.6702 91.5292L75.8657 91.324H76.0613L76.2568 91.1188H76.4524L76.6479 91.324H76.8435L77.039 91.1188H77.2346L77.039 90.9137L77.4301 90.5033H78.0168L78.2123 90.2981H78.6034L78.799 90.093H79.3856L79.5812 90.2981H80.1678H79.7767L79.5812 90.093L79.7767 89.8878H80.3634L80.5589 90.093H81.9278L82.1233 89.8878V89.4775L81.9278 89.2723V89.0671L81.7322 88.8619L81.5367 89.0671L81.3411 88.8619V88.4516L80.95 88.0413V87.8361L81.1456 87.6309L81.3411 87.8361L80.95 87.4257V87.2206L80.3634 86.6051L80.1678 86.8102L78.6034 85.1688H78.4079L77.8212 84.5533L78.0168 84.3482L77.8212 84.143H77.6257L77.4301 83.9378H77.2346L76.8435 83.5275V83.7326H77.039L77.2346 83.9378H77.4301L77.6257 84.143L77.4301 84.3482H77.2346V85.9895L77.039 86.1947V86.6051L76.8435 86.8102V87.2206L76.6479 87.4257V87.8361L76.4524 88.0413V88.2464L76.2568 88.4516V88.6568L75.8657 89.0671V89.2723L75.4746 89.6826L75.2791 89.4775L73.9102 90.9137H73.7147L73.3236 91.324H73.128L72.9325 91.5292L73.128 91.7344L72.9325 91.9395H72.5414L72.3458 92.1447H72.1503L71.9547 92.3499H70.5859L70.3903 92.555H69.8037L69.6081 92.3499H68.8259L68.6304 92.1447H68.2393L68.0437 91.9395L68.2393 91.7344L68.0437 91.5292H67.8482L67.0659 90.7085L66.8704 90.9137L66.4793 90.5033V90.093L66.6749 89.8878V89.4775L66.4793 89.2723V89.0671L66.2837 88.8619L66.0882 89.0671L65.8927 88.8619V88.6568L65.6971 88.4516V88.2464L65.5015 88.0413V87.8361L65.6971 87.6309V87.4257L65.5015 87.2206L65.306 87.4257L64.9149 87.0154V86.8102L63.546 85.374L63.7416 85.1688H63.9371L64.9149 86.1947L63.7416 84.9637H63.546L63.1549 84.5533H62.9594L62.5683 84.143H62.3727L62.1772 84.3482H61.7861L61.5905 84.143H61.395L61.1994 83.9378H60.8083L60.6128 83.7326H60.2217L60.0261 83.5275H58.4617L58.2662 83.3223L58.4617 83.1171H59.635V82.912L59.4395 83.1171H56.8973H58.0706L58.2662 83.3223L58.0706 83.5275H56.7018L56.5062 83.3223H56.3107L55.724 83.9378V84.143L55.9196 84.3482V84.9637L56.1151 85.1688V85.5792L56.3107 85.7844V86.1947L56.1151 86.3999V86.6051L56.3107 86.8102L56.5062 87.0154V87.2206L56.7018 87.4257L57.6795 88.4516L57.2884 88.8619L57.0929 88.6568H56.7018L56.5062 88.4516H56.3107L56.1151 88.6568H55.9196L55.5285 88.2464L55.724 88.0413L54.1596 86.3999V86.1947L53.9641 85.9895V85.7844L53.7685 85.5792V85.374L53.573 85.1688L53.3774 85.374L53.1819 85.1688V84.9637L52.9863 84.7585V84.143L52.7908 83.9378V81.2706L52.9863 81.0654V80.6551L53.1819 80.4499L53.3774 80.6551L53.573 80.4499V80.2447L53.7685 80.0395V79.8344L54.5507 79.0137H54.7463L54.9418 78.8085H55.1374L55.3329 78.6033L55.1374 78.3982L55.3329 78.193H55.9196L56.1151 77.9878H57.2884L57.484 78.193H58.6573L58.8528 78.3982H60.8083L61.0039 78.6033H61.395L61.5905 78.3982H61.7861L62.5683 77.5775L62.3727 77.7827L62.1772 77.5775V77.3723L62.3727 77.1671V76.962L62.5683 76.7568V74.4999L62.3727 74.2947V73.8844L62.1772 73.6792V73.2689L62.3727 73.0637V72.8585L62.1772 72.6534V72.4482L61.9816 72.243L61.7861 72.4482L61.395 72.0378V71.8327L61.0039 71.4223V71.2172L60.4172 70.6016V70.3965L60.6128 70.1913L61.0039 70.6016L60.2217 69.7809L60.0261 69.9861L58.2662 68.1396L58.4617 67.9344L57.6795 67.1137H57.484L56.8973 66.4982L57.2884 66.9085L57.0929 67.1137H56.8973L56.3107 66.4982L56.5062 66.293L56.1151 65.8827H55.9196L55.724 66.0878H55.5285L55.1374 65.6775L55.3329 65.4723L55.1374 65.2672H54.9418L54.7463 65.4723H54.5507L54.3552 65.2672H54.1596L53.7685 64.8568L53.9641 64.6516L53.7685 64.4465H53.573L53.3774 64.6516H52.9863L52.7908 64.4465H52.3997L52.2041 64.2413L52.3997 64.0361H52.2041L52.0086 64.2413H48.2931L48.0976 64.4465H46.5332L46.3376 64.2413H45.5554L45.3599 64.0361H44.5777L44.3821 63.831L44.5777 63.6258L44.1866 63.2154L43.991 63.4206H43.7955L43.5999 63.6258H43.0133L42.8177 63.4206H42.2311L42.0355 63.2154H41.84L41.6444 63.0103H41.2533L41.0578 62.8051L41.2533 62.5999L41.0578 62.3948H40.6667L40.4711 62.1896H40.2756L40.08 61.9844H39.8845L39.6889 62.1896H39.2978L39.1023 61.9844L39.2978 61.7792L39.1023 61.5741H38.9067L38.5156 61.1637H38.3201L37.929 60.7534H37.7334L37.5379 60.5482L37.7334 60.343H40.4711H38.1245L37.929 60.1379L38.1245 59.9327H40.6667L40.8622 60.1379H41.4489L41.6444 59.9327H41.84V59.3172L41.2533 58.7017L41.4489 58.9068L41.2533 59.112H41.0578L40.6667 58.7017L40.8622 58.4965L40.6667 58.2913H40.4711L40.2756 58.0861H40.08L39.8845 58.2913H39.4934L39.2978 58.0861H38.7112L38.5156 57.881L38.7112 57.6758H39.1023H38.5156L38.3201 57.881H37.5379L37.3423 57.6758H35.7779L35.5824 57.4706H35.3868L35.1913 57.6758V57.881L34.9957 58.0861V58.2913L35.1913 58.4965V58.7017L35.3868 58.9068V59.112L35.1913 59.3172L34.6046 58.7017L34.4091 58.9068L34.018 58.4965V58.2913L33.8224 58.0861V57.6758L33.6269 57.4706V56.6499L33.4313 56.4448V56.2396L33.2358 56.0344V55.4189L33.4313 55.2137V55.0086L33.2358 55.2137L33.0402 55.0086V54.8034L33.2358 54.5982V54.393L33.0402 54.1879L32.8447 54.393L32.4536 53.9827V53.7775L29.9114 51.1103V50.9051L30.107 50.6999L32.4536 53.162L29.7159 50.2896V50.0844L29.5203 49.8793V48.8534L29.7159 48.6482V48.4431L29.9114 48.2379H30.107L30.3025 48.0327H30.4981L30.6936 47.8275L30.4981 47.6224L30.6936 47.4172H31.6714L31.8669 47.212H33.6269L33.8224 47.0069H35.1913L35.3868 46.8017H36.169L36.3646 47.0069H36.9512L37.1468 46.8017H37.5379L37.7334 46.5965H38.1245L38.3201 46.3913H38.7112L38.9067 46.1862L38.7112 45.981L38.9067 45.7758H39.1023L39.2978 45.5706H39.6889L39.8845 45.7758H40.08L40.2756 45.5706H40.4711L40.6667 45.3655H40.8622L41.0578 45.1603L40.8622 44.9551L41.2533 44.5448H41.4489L41.6444 44.3396H41.84L42.0355 44.5448H42.2311L42.4266 44.3396L42.2311 44.1344L42.6222 43.7241H42.8177L43.0133 43.9293L42.8177 44.1344L43.2088 43.7241H43.4044L43.5999 43.5189L43.4044 43.3138L43.7955 42.9034H43.991L44.1866 43.1086H44.3821L44.7732 42.6982H44.9688L45.1643 42.4931H45.3599L45.5554 42.2879L45.3599 42.0827L45.5554 41.8776H45.751L46.1421 41.4672H46.3376L46.5332 41.6724H46.7287L46.9243 41.4672H47.3154L47.5109 41.262H47.7065L47.902 41.0569H48.0976L48.2931 40.8517H48.4887L48.6842 40.6465H49.0753L49.2709 40.4413L49.0753 40.2362L49.2709 40.031H49.662L49.8575 40.2362H50.0531L49.8575 40.031L50.0531 39.8258H50.2486L50.4442 40.031H50.8353L51.0308 39.8258H51.4219L51.6175 40.031V39.8258L51.813 39.6207H52.2041L52.3997 39.4155L52.2041 39.2103L52.3997 39.0051H53.1819L53.3774 38.8H53.9641L54.1596 38.5948H55.1374L55.3329 38.3896H56.5062L56.7018 38.5948V38.3896L56.8973 38.1845H58.2662V37.3638L58.4617 37.1586V36.5431L58.6573 36.3379L58.8528 36.5431V37.3638L58.6573 37.5689V38.3896L58.4617 38.5948H57.2884H58.6573V37.5689L58.8528 37.3638V36.5431L58.6573 36.3379V35.5172L58.8528 35.312V34.9017L59.0484 34.6965V34.2862L59.2439 34.081V33.6707L59.4395 33.4655V33.2603L59.635 33.0552V32.85L59.8306 32.6448V32.4396L60.2217 32.0293L60.4172 32.2345L61.1994 31.4138L60.6128 32.0293L60.4172 31.8241V31.619L61.395 30.5931H61.5905L61.7861 30.7983L61.5905 31.0034L62.1772 30.3879L61.9816 30.1827L62.3727 29.7724H62.7638L62.9594 29.9776L62.7638 30.1827L63.1549 29.7724L62.9594 29.5672L63.1549 29.3621H63.7416L63.9371 29.1569H65.6971L65.8927 29.3621H66.0882L66.2837 29.5672H66.6749L67.0659 29.9776L66.8704 30.1827L67.2615 30.5931L67.8482 31.2086L68.0437 31.0034L68.4348 31.4138V31.619L68.6304 31.8241V32.0293L68.8259 32.2345V32.85L69.0215 33.0552V35.1069L68.8259 35.312L68.6304 35.5172H68.4348V35.7224H68.6304L68.8259 35.5172V35.312L69.0215 35.1069H69.217L69.8037 34.4914H69.9992L70.3903 34.081H70.5859L70.7814 33.8758H70.977L71.1725 33.6707L70.977 33.4655L71.1725 33.2603H71.7592L71.9547 33.0552H74.4969L74.6924 33.2603H75.0835L75.2791 33.4655H75.4746L75.8657 33.8758L75.6702 34.081L76.0613 34.4914L76.2568 34.2862L76.6479 34.6965V34.9017L76.8435 35.1069V35.5172L76.6479 35.7224V37.3638L76.8435 37.5689V37.9793L76.6479 38.1845V38.5948L76.4524 38.8V39.0051L76.0613 39.4155V39.6207L75.8657 39.8258L75.6702 39.6207L74.3013 41.0569L74.1058 41.262H73.9102L73.7147 41.4672L73.9102 41.6724L73.5191 42.0827H73.3236L73.128 41.8776H72.9325L72.7369 42.0827H72.3458L72.1503 42.2879H71.5636L71.3681 42.4931H70.1948L70.5859 42.9034H71.1725L71.3681 42.6982H71.7592L71.9547 42.9034H72.5414L72.7369 43.1086L72.5414 43.3138L72.7369 43.5189H73.128L73.3236 43.3138H73.7147L73.9102 43.5189H74.3013L74.4969 43.7241H74.6924L74.888 43.9293L74.6924 44.1344L74.888 44.3396H75.2791L75.4746 44.1344H75.8657L76.0613 44.3396H76.4524L76.6479 44.5448H76.8435L77.039 44.75H77.2346L77.4301 44.9551L77.2346 45.1603L77.4301 45.3655H77.8212L78.0168 45.1603H78.4079L78.6034 45.3655H78.799L78.9945 45.5706L78.799 45.7758L78.9945 45.981H79.1901L79.3856 46.1862H79.7767L79.9723 46.3913H80.1678L80.3634 46.5965H80.5589L80.7545 46.8017H80.95L81.1456 46.5965H81.5367L81.7322 46.8017L81.5367 47.0069L81.7322 47.212H81.9278L82.1233 47.4172H82.3189L82.5144 47.6224H82.71L82.9055 47.8275H83.1011L83.2966 48.0327H83.4922L83.6877 48.2379H83.8833L84.0788 48.4431H84.2744L84.4699 48.2379H84.861L85.0566 48.4431H85.2521L85.6432 48.8534L85.4477 49.0586L85.6432 49.2637H85.8388L86.0343 49.4689H86.2299L86.4254 49.6741H86.621L86.8165 49.4689H87.0121L87.2076 49.6741H87.4032L87.5987 49.8793H87.7943L88.1854 50.2896L87.9898 50.4948L88.1854 50.6999H88.3809L88.5765 50.4948H88.772L88.9676 50.6999H89.1631L89.5542 51.1103L89.3587 51.3155L89.5542 51.5206H89.7498L89.9453 51.7258L89.7498 51.931L90.1409 52.3413L89.9453 52.1362L90.1409 51.931H90.3364L90.532 52.1362H90.7275L91.1186 52.5465H91.3142L91.5097 52.3413H91.7053L92.0964 52.7517L91.9008 52.9568L92.0964 53.162H92.2919L92.683 53.5724H92.8786L93.0741 53.7775L93.2697 53.9827H93.4652L93.8563 54.393H94.0519L94.443 54.8034H94.6385L95.0296 55.2137H95.2252L95.6163 55.6241L95.4207 55.4189L95.6163 55.2137H95.8118L96.2029 55.6241H96.3985L96.9851 56.2396L96.7896 56.4448L97.1807 56.8551H97.3762L97.5718 56.6499H97.7673L98.354 57.2655L98.1584 57.4706L98.7451 58.0861H98.9406L99.5273 58.7017L99.3317 58.4965L99.5273 58.2913H99.7228L100.114 58.7017L99.9184 58.9068L100.505 59.5223L100.309 59.3172L100.505 59.112H100.701L101.092 59.5223L100.896 59.7275L101.874 60.7534L101.092 59.9327L101.287 59.7275H101.483L102.461 60.7534L102.265 60.9585L102.852 61.5741H103.047L103.243 61.7792V61.9844L103.438 62.1896V61.3689V61.5741L103.243 61.7792L103.047 61.5741H102.852L102.656 61.3689L102.852 61.1637H103.047L103.243 60.9585V56.0344L103.047 55.8293V53.7775L102.852 53.5724V51.931L102.656 51.7258V50.9051L102.461 50.6999V49.4689L102.265 49.2637V48.6482L102.069 48.4431V47.6224L101.874 47.4172V46.8017L101.678 46.5965V45.981L101.483 45.7758V45.3655L101.287 45.1603V44.5448L101.092 44.3396V43.9293L100.896 43.7241V43.1086L100.701 42.9034V42.4931L100.505 42.2879V42.0827L100.309 41.8776V41.4672L100.114 41.262V40.8517L99.9184 40.6465V40.4413L99.7228 40.2362V39.8258L99.5273 39.6207V39.4155L99.3317 39.2103V38.8L99.5273 38.5948V38.3896L99.3317 38.1845L99.1362 38.3896L98.9406 38.1845V37.9793L98.7451 37.7741V37.5689L98.5495 37.3638V37.1586L98.354 36.9534V36.5431L98.1584 36.3379V36.1327L98.354 35.9276V35.7224L98.1584 35.5172L97.9629 35.7224L97.7673 35.5172V35.312L97.3762 34.9017V34.6965L97.1807 34.4914V34.2862L97.3762 34.081V33.8758L97.1807 33.6707L96.9851 33.8758L96.594 33.4655V33.2603L96.3985 33.0552V32.85L96.594 32.6448V32.4396L96.3985 32.2345L96.2029 32.4396L95.8118 32.0293V31.8241L95.4207 31.4138V31.2086L95.6163 31.0034V30.7983L95.4207 30.5931L95.2252 30.3879L95.0296 30.5931L94.6385 30.1827V29.9776L94.0519 29.3621V29.1569L94.2474 28.9517V28.7465L93.6608 28.131L93.4652 28.3362L92.8786 27.7207V27.5155L92.0964 26.6948V26.4897L92.2919 26.2845L92.683 26.6948L92.4875 26.4897L91.7053 25.669L91.5097 25.8741L90.532 24.8483V24.6431L90.7275 24.4379L91.5097 25.2586L90.9231 24.6431L87.4032 20.95L88.5765 22.181L88.3809 22.3862H88.1854L86.8165 20.95L87.0121 20.7448L86.4254 20.1293L86.8165 20.5397L86.621 20.7448H86.4254L85.6432 19.9241L85.8388 19.719L85.2521 19.1035H85.0566L84.4699 18.4879H84.2744L83.6877 17.8724H83.4922L83.1011 17.4621H82.9055L82.5144 17.0517H82.3189L81.9278 16.6414H81.7322L81.3411 16.2311H81.1456L80.95 16.0259L80.7545 15.8207H80.5589L80.3634 16.0259H80.1678L79.7767 15.6155H79.5812L79.3856 15.4104L79.5812 15.2052L79.3856 15H79.1901L78.9945 14.7948H78.799L78.6034 14.5897H78.4079L78.2123 14.7948H78.0168L77.8212 14.5897H77.6257L77.4301 14.3845H77.2346L77.039 14.1793H76.8435L76.6479 13.9742L76.8435 13.769L76.6479 13.5638H76.4524L76.2568 13.3586H76.0613L75.8657 13.1535H75.6702L75.4746 12.9483H75.2791L75.0835 13.1535H74.6924L74.4969 12.9483H74.3013L74.1058 12.7431H73.7147L73.5191 12.538H73.3236L73.128 12.3328L73.3236 12.1276L73.128 11.9224H72.9325L72.7369 12.1276H72.3458L72.1503 11.9224H71.7592L71.5636 11.7173H71.1725L70.977 11.5121H70.5859L70.3903 11.3069H69.9992L69.8037 11.1017H69.4126L69.217 10.8966H68.6304L68.4348 10.6914L68.6304 10.4862L68.4348 10.2811H68.0437L67.8482 10.4862H67.2615L67.0659 10.2811H66.2837L66.0882 10.0759H65.306L65.1104 9.87072H64.1327L63.9371 9.66555H62.7638L62.5683 9.46037H61.5905L61.395 9.2552H59.2439L59.0484 9.05003H52.5952Z" fill="#F4F6F8"/>
</svg>
