<svg width="94" height="94" viewBox="0 0 94 94" fill="none" xmlns="http://www.w3.org/2000/svg">
<path d="M47 0C21.0845 0 0 21.0845 0 47C0 72.9155 21.0845 94 47 94C72.9155 94 94 72.9155 94 47C94 21.0845 72.9155 0 47 0ZM35.6522 26.3968C38.5151 23.3622 42.544 21.6923 47 21.6923C51.456 21.6923 55.4487 23.3735 58.3229 26.4239C61.2356 29.5151 62.6524 33.6683 62.3179 38.1333C61.6491 47 54.7799 54.2308 47 54.2308C39.2201 54.2308 32.3374 47 31.6821 38.131C31.3499 33.6299 32.7644 29.4631 35.6522 26.3968ZM47 86.7692C41.691 86.7727 36.4353 85.7101 31.5446 83.6444C26.6539 81.5787 22.2278 78.5519 18.5288 74.7436C20.6474 71.7224 23.3467 69.1536 26.4691 67.1874C32.2289 63.4952 39.5184 61.4615 47 61.4615C54.4816 61.4615 61.7711 63.4952 67.5241 67.1874C70.6491 69.1527 73.3508 71.7215 75.4712 74.7436C71.7725 78.5523 67.3465 81.5794 62.4557 83.6451C57.565 85.7109 52.3091 86.7732 47 86.7692Z" fill="#F4F6F8"/>
</svg>
