<svg width="66" height="66" viewBox="0 0 66 66" fill="none" xmlns="http://www.w3.org/2000/svg">
<path d="M58.8702 54.3198L46.7414 42.191C49.6615 38.3037 51.2378 33.5719 51.2325 28.71C51.2325 16.2912 41.1288 6.1875 28.71 6.1875C16.2912 6.1875 6.1875 16.2912 6.1875 28.71C6.1875 41.1288 16.2912 51.2325 28.71 51.2325C33.5719 51.2378 38.3037 49.6615 42.191 46.7414L54.3198 58.8702C54.9338 59.419 55.7345 59.712 56.5577 59.6889C57.3809 59.6659 58.164 59.3286 58.7463 58.7463C59.3286 58.164 59.6659 57.3809 59.6889 56.5577C59.712 55.7345 59.419 54.9338 58.8702 54.3198ZM12.6225 28.71C12.6225 25.5282 13.566 22.4178 15.3337 19.7723C17.1014 17.1267 19.614 15.0647 22.5536 13.8471C25.4932 12.6295 28.7278 12.3109 31.8485 12.9316C34.9692 13.5524 37.8357 15.0845 40.0856 17.3344C42.3355 19.5843 43.8676 22.4508 44.4884 25.5715C45.1091 28.6922 44.7905 31.9268 43.5729 34.8664C42.3553 37.806 40.2933 40.3186 37.6477 42.0863C35.0022 43.854 31.8918 44.7975 28.71 44.7975C24.4449 44.7924 20.356 43.0958 17.3401 40.0799C14.3242 37.064 12.6276 32.9751 12.6225 28.71Z" fill="#2B4C68"/>
</svg>
